# xmcd
#
# Track frame offsets:
#	150
#	12950
#	27930
#	37597
#	49320
#	61075
#	71165
#	81275
#	92512
#	102760
#
# Disc length: 1608 seconds
#
# Revision: 0
# Processed by: cddbd v1.4PL0 Copyright (c) Steve Scherf et al.
# Submitted via: dBpowerAMP V4.0
#
DISCID=7206460a
DTITLE=Leroy Van Dyke - The World's Most Famous Auctioneer
DYEAR=1900
DGENRE=
TTITLE0=The Auctioneer ( This Is Leroy Van Dyke)
TTITLE1=Anne Of A Thousand Days
TTITLE2=Be A Good Girl
TTITLE3=Big Man In A Big House
TTITLE4=Just A State Of Mind
TTITLE5=Dim Dark Corner
TTITLE6=Walk On By
TTITLE7=Big Wide Wonderful World Of Country Music
TTITLE8=If A Woman Answers (Hang Up The Phone)
TTITLE9=Black Cloud
EXTD=
EXTT0=
EXTT1=
EXTT2=
EXTT3=
EXTT4=
EXTT5=
EXTT6=
EXTT7=
EXTT8=
EXTT9=
PLAYORDER=
